{
    "frames": [
        {
            "pkt_pts_time": "0.000000",
            "best_effort_timestamp_time": "0.000000",
            "pict_type": "I"
        },
        {
            "pkt_pts_time": "0.033333",
            "best_effort_timestamp_time": "0.033333",
            "pict_type": "B"
        },
        {
            "pkt_pts_time": "0.066667",
            "best_effort_timestamp_time": "0.066667",
            "pict_type": "B"
        },
        {
            "pkt_pts_time": "0.100000",
            "best_effort_timestamp_time": "0.100000",
            "pict_type": "B"
        },
        {
            "pkt_pts_time": "0.133333",
            "best_effort_timestamp_time": "0.133333",
            "pict_type": "P"
        },
        {
            "pkt_pts_time": "0.166667",
            "best_effort_timestamp_time": "0.166667",
            "pict_type": "B"
        },
        {
            "pkt_pts_time": "0.200000",
            "best_effort_timestamp_time": "0.200000",
            "pict_type": "B"
        },
        {
            "pkt_pts_time": "0.233333",
            "best_effort_timestamp_time": "0.233333",
            "pict_type": "B"
        },
        {
            "pkt_pts_time": "0.266667",
            "best_effort_timestamp_time": "0.266667",
            "pict_type": "P"
        },
        {
            "pkt_pts_time": "0.300000",
            "best_effort_timestamp_time": "0.300000",
            "pict_type": "B"
        },
        {
            "pkt_pts_time": "0.333333",
            "best_effort_timestamp_time": "0.333333",
            "pict_type": "B"
        },
        {
            "pkt_pts_time": "0.366667",
            "best_effort_timestamp_time": "0.366667",
            "pict_type": "B"
        },
        {
            "pkt_pts_time": "0.400000",
            "best_effort_timestamp_time": "0.400000",
            "pict_type": "P"
        },
        {
            "pkt_pts_time": "0.433333",
            "best_effort_timestamp_time": "0.433333",
            "pict_type": "B"
        },
        {
            "pkt_pts_time": "0.466667",
            "best_effort_timestamp_time": "0.466667",
            "pict_type": "B"
        },
        {
            "pkt_pts_time": "0.500000",
            "best_effort_timestamp_time": "0.500000",
            "pict_type": "B"
        },
        {
            "pkt_pts_time": "0.533333",
            "best_effort_timestamp_time": "0.533333",
            "pict_type": "P"
        },
        {
            "pkt_pts_time": "0.566667",
            "best_effort_timestamp_time": "0.566667",
            "pict_type": "B"
        },
        {
            "pkt_pts_time": "0.600000",
            "best_effort_timestamp_time": "0.600000",
            "pict_type": "B"
        },
        {
            "pkt_pts_time": "0.633333",
            "best_effort_timestamp_time": "0.633333",
            "pict_type": "B"
        },
        {
            "pkt_pts_time": "0.666667",
            "best_effort_timestamp_time": "0.666667",
            "pict_type": "P"
        },
        {
            "pkt_pts_time": "0.700000",
            "best_effort_timestamp_time": "0.700000",
            "pict_type": "B"
        },
        {
            "pkt_pts_time": "0.733333",
            "best_effort_timestamp_time": "0.733333",
            "pict_type": "B"
        },
        {
            "pkt_pts_time": "0.766667",
            "best_effort_timestamp_time": "0.766667",
            "pict_type": "B"
        },
        {
            "pkt_pts_time": "0.800000",
            "best_effort_timestamp_time": "0.800000",
            "pict_type": "P"
        },
        {
            "pkt_pts_time": "0.833333",
            "best_effort_timestamp_time": "0.833333",
            "pict_type": "B"
        },
        {
            "pkt_pts_time": "0.866667",
            "best_effort_timestamp_time": "0.866667",
            "pict_type": "B"
        },
        {
            "pkt_pts_time": "0.900000",
            "best_effort_timestamp_time": "0.900000",
            "pict_type": "B"
        },
        {
            "pkt_pts_time": "0.933333",
            "best_effort_timestamp_time": "0.933333",
            "pict_type": "P"
        },
        {
            "pkt_pts_time": "0.966667",
            "best_effort_timestamp_time": "0.966667",
            "pict_type": "B"
        },
        {
            "pkt_pts_time": "1.000000",
            "best_effort_timestamp_time": "1.000000",
            "pict_type": "B"
        },
        {
            "pkt_pts_time": "1.033333",
            "best_effort_timestamp_time": "1.033333",
            "pict_type": "B"
        },
        {
            "pkt_pts_time": "1.066667",
            "best_effort_timestamp_time": "1.066667",
            "pict_type": "P"
        },
        {
            "pkt_pts_time": "1.100000",
            "best_effort_timestamp_time": "1.100000",
            "pict_type": "B"
        },
        {
            "pkt_pts_time": "1.133333",
            "best_effort_timestamp_time": "1.133333",
            "pict_type": "B"
        },
        {
            "pkt_pts_time": "1.166667",
            "best_effort_timestamp_time": "1.166667",
            "pict_type": "B"
        },
        {
            "pkt_pts_time": "1.200000",
            "best_effort_timestamp_time": "1.200000",
            "pict_type": "P"
        },
        {
            "pkt_pts_time": "1.233333",
            "best_effort_timestamp_time": "1.233333",
            "pict_type": "B"
        },
        {
            "pkt_pts_time": "1.266667",
            "best_effort_timestamp_time": "1.266667",
            "pict_type": "B"
        },
        {
            "pkt_pts_time": "1.300000",
            "best_effort_timestamp_time": "1.300000",
            "pict_type": "B"
        },
        {
            "pkt_pts_time": "1.333333",
            "best_effort_timestamp_time": "1.333333",
            "pict_type": "P"
        },
        {
            "pkt_pts_time": "1.366667",
            "best_effort_timestamp_time": "1.366667",
            "pict_type": "B"
        },
        {
            "pkt_pts_time": "1.400000",
            "best_effort_timestamp_time": "1.400000",
            "pict_type": "B"
        },
        {
            "pkt_pts_time": "1.433333",
            "best_effort_timestamp_time": "1.433333",
            "pict_type": "B"
        },
        {
            "pkt_pts_time": "1.466667",
            "best_effort_timestamp_time": "1.466667",
            "pict_type": "P"
        },
        {
            "pkt_pts_time": "1.500000",
            "best_effort_timestamp_time": "1.500000",
            "pict_type": "B"
        },
        {
            "pkt_pts_time": "1.533333",
            "best_effort_timestamp_time": "1.533333",
            "pict_type": "B"
        },
        {
            "pkt_pts_time": "1.566667",
            "best_effort_timestamp_time": "1.566667",
            "pict_type": "B"
        },
        {
            "pkt_pts_time": "1.600000",
            "best_effort_timestamp_time": "1.600000",
            "pict_type": "P"
        },
        {
            "pkt_pts_time": "1.633333",
            "best_effort_timestamp_time": "1.633333",
            "pict_type": "B"
        },
        {
            "pkt_pts_time": "1.666667",
            "best_effort_timestamp_time": "1.666667",
            "pict_type": "B"
        },
        {
            "pkt_pts_time": "1.700000",
            "best_effort_timestamp_time": "1.700000",
            "pict_type": "B"
        },
        {
            "pkt_pts_time": "1.733333",
            "best_effort_timestamp_time": "1.733333",
            "pict_type": "P"
        },
        {
            "pkt_pts_time": "1.766667",
            "best_effort_timestamp_time": "1.766667",
            "pict_type": "B"
        },
        {
            "pkt_pts_time": "1.800000",
            "best_effort_timestamp_time": "1.800000",
            "pict_type": "B"
        },
        {
            "pkt_pts_time": "1.833333",
            "best_effort_timestamp_time": "1.833333",
            "pict_type": "B"
        },
        {
            "pkt_pts_time": "1.866667",
            "best_effort_timestamp_time": "1.866667",
            "pict_type": "P"
        },
        {
            "pkt_pts_time": "1.900000",
            "best_effort_timestamp_time": "1.900000",
            "pict_type": "B"
        },
        {
            "pkt_pts_time": "1.933333",
            "best_effort_timestamp_time": "1.933333",
            "pict_type": "B"
        },
        {
            "pkt_pts_time": "1.966667",
            "best_effort_timestamp_time": "1.966667",
            "pict_type": "B"
        },
        {
            "pkt_pts_time": "2.000000",
            "best_effort_timestamp_time": "2.000000",
            "pict_type": "P"
        },
        {
            "pkt_pts_time": "2.033333",
            "best_effort_timestamp_time": "2.033333",
            "pict_type": "B"
        },
        {
            "pkt_pts_time": "2.066667",
            "best_effort_timestamp_time": "2.066667",
            "pict_type": "B"
        },
        {
            "pkt_pts_time": "2.100000",
            "best_effort_timestamp_time": "2.100000",
            "pict_type": "B"
        },
        {
            "pkt_pts_time": "2.133333",
            "best_effort_timestamp_time": "2.133333",
            "pict_type": "P"
        },
        {
            "pkt_pts_time": "2.166667",
            "best_effort_timestamp_time": "2.166667",
            "pict_type": "B"
        },
        {
            "pkt_pts_time": "2.200000",
            "best_effort_timestamp_time": "2.200000",
            "pict_type": "B"
        },
        {
            "pkt_pts_time": "2.233333",
            "best_effort_timestamp_time": "2.233333",
            "pict_type": "B"
        },
        {
            "pkt_pts_time": "2.266667",
            "best_effort_timestamp_time": "2.266667",
            "pict_type": "P"
        },
        {
            "pkt_pts_time": "2.300000",
            "best_effort_timestamp_time": "2.300000",
            "pict_type": "B"
        },
        {
            "pkt_pts_time": "2.333333",
            "best_effort_timestamp_time": "2.333333",
            "pict_type": "B"
        },
        {
            "pkt_pts_time": "2.366667",
            "best_effort_timestamp_time": "2.366667",
            "pict_type": "B"
        },
        {
            "pkt_pts_time": "2.400000",
            "best_effort_timestamp_time": "2.400000",
            "pict_type": "P"
        },
        {
            "pkt_pts_time": "2.433333",
            "best_effort_timestamp_time": "2.433333",
            "pict_type": "B"
        },
        {
            "pkt_pts_time": "2.466667",
            "best_effort_timestamp_time": "2.466667",
            "pict_type": "B"
        },
        {
            "pkt_pts_time": "2.500000",
            "best_effort_timestamp_time": "2.500000",
            "pict_type": "B"
        },
        {
            "pkt_pts_time": "2.533333",
            "best_effort_timestamp_time": "2.533333",
            "pict_type": "P"
        },
        {
            "pkt_pts_time": "2.566667",
            "best_effort_timestamp_time": "2.566667",
            "pict_type": "B"
        },
        {
            "pkt_pts_time": "2.600000",
            "best_effort_timestamp_time": "2.600000",
            "pict_type": "B"
        },
        {
            "pkt_pts_time": "2.633333",
            "best_effort_timestamp_time": "2.633333",
            "pict_type": "B"
        },
        {
            "pkt_pts_time": "2.666667",
            "best_effort_timestamp_time": "2.666667",
            "pict_type": "P"
        },
        {
            "pkt_pts_time": "2.700000",
            "best_effort_timestamp_time": "2.700000",
            "pict_type": "B"
        },
        {
            "pkt_pts_time": "2.733333",
            "best_effort_timestamp_time": "2.733333",
            "pict_type": "B"
        },
        {
            "pkt_pts_time": "2.766667",
            "best_effort_timestamp_time": "2.766667",
            "pict_type": "B"
        },
        {
            "pkt_pts_time": "2.800000",
            "best_effort_timestamp_time": "2.800000",
            "pict_type": "P"
        },
        {
            "pkt_pts_time": "2.833333",
            "best_effort_timestamp_time": "2.833333",
            "pict_type": "B"
        },
        {
            "pkt_pts_time": "2.866667",
            "best_effort_timestamp_time": "2.866667",
            "pict_type": "B"
        },
        {
            "pkt_pts_time": "2.900000",
            "best_effort_timestamp_time": "2.900000",
            "pict_type": "B"
        },
        {
            "pkt_pts_time": "2.933333",
            "best_effort_timestamp_time": "2.933333",
            "pict_type": "P"
        },
        {
            "pkt_pts_time": "2.966667",
            "best_effort_timestamp_time": "2.966667",
            "pict_type": "B"
        },
        {
            "pkt_pts_time": "3.000000",
            "best_effort_timestamp_time": "3.000000",
            "pict_type": "B"
        },
        {
            "pkt_pts_time": "3.033333",
            "best_effort_timestamp_time": "3.033333",
            "pict_type": "B"
        },
        {
            "pkt_pts_time": "3.066667",
            "best_effort_timestamp_time": "3.066667",
            "pict_type": "P"
        },
        {
            "pkt_pts_time": "3.100000",
            "best_effort_timestamp_time": "3.100000",
            "pict_type": "B"
        },
        {
            "pkt_pts_time": "3.133333",
            "best_effort_timestamp_time": "3.133333",
            "pict_type": "B"
        },
        {
            "pkt_pts_time": "3.166667",
            "best_effort_timestamp_time": "3.166667",
            "pict_type": "B"
        },
        {
            "pkt_pts_time": "3.200000",
            "best_effort_timestamp_time": "3.200000",
            "pict_type": "P"
        },
        {
            "pkt_pts_time": "3.233333",
            "best_effort_timestamp_time": "3.233333",
            "pict_type": "B"
        },
        {
            "pkt_pts_time": "3.266667",
            "best_effort_timestamp_time": "3.266667",
            "pict_type": "B"
        },
        {
            "pkt_pts_time": "3.300000",
            "best_effort_timestamp_time": "3.300000",
            "pict_type": "B"
        },
        {
            "pkt_pts_time": "3.333333",
            "best_effort_timestamp_time": "3.333333",
            "pict_type": "P"
        },
        {
            "pkt_pts_time": "3.366667",
            "best_effort_timestamp_time": "3.366667",
            "pict_type": "B"
        },
        {
            "pkt_pts_time": "3.400000",
            "best_effort_timestamp_time": "3.400000",
            "pict_type": "B"
        },
        {
            "pkt_pts_time": "3.433333",
            "best_effort_timestamp_time": "3.433333",
            "pict_type": "B"
        },
        {
            "pkt_pts_time": "3.466667",
            "best_effort_timestamp_time": "3.466667",
            "pict_type": "P"
        },
        {
            "pkt_pts_time": "3.500000",
            "best_effort_timestamp_time": "3.500000",
            "pict_type": "B"
        },
        {
            "pkt_pts_time": "3.533333",
            "best_effort_timestamp_time": "3.533333",
            "pict_type": "B"
        },
        {
            "pkt_pts_time": "3.566667",
            "best_effort_timestamp_time": "3.566667",
            "pict_type": "B"
        },
        {
            "pkt_pts_time": "3.600000",
            "best_effort_timestamp_time": "3.600000",
            "pict_type": "P"
        },
        {
            "pkt_pts_time": "3.633333",
            "best_effort_timestamp_time": "3.633333",
            "pict_type": "B"
        },
        {
            "pkt_pts_time": "3.666667",
            "best_effort_timestamp_time": "3.666667",
            "pict_type": "B"
        },
        {
            "pkt_pts_time": "3.700000",
            "best_effort_timestamp_time": "3.700000",
            "pict_type": "B"
        },
        {
            "pkt_pts_time": "3.733333",
            "best_effort_timestamp_time": "3.733333",
            "pict_type": "P"
        },
        {
            "pkt_pts_time": "3.766667",
            "best_effort_timestamp_time": "3.766667",
            "pict_type": "B"
        },
        {
            "pkt_pts_time": "3.800000",
            "best_effort_timestamp_time": "3.800000",
            "pict_type": "B"
        },
        {
            "pkt_pts_time": "3.833333",
            "best_effort_timestamp_time": "3.833333",
            "pict_type": "B"
        },
        {
            "pkt_pts_time": "3.866667",
            "best_effort_timestamp_time": "3.866667",
            "pict_type": "P"
        },
        {
            "pkt_pts_time": "3.900000",
            "best_effort_timestamp_time": "3.900000",
            "pict_type": "B"
        },
        {
            "pkt_pts_time": "3.933333",
            "best_effort_timestamp_time": "3.933333",
            "pict_type": "B"
        },
        {
            "pkt_pts_time": "3.966667",
            "best_effort_timestamp_time": "3.966667",
            "pict_type": "B"
        },
        {
            "pkt_pts_time": "4.000000",
            "best_effort_timestamp_time": "4.000000",
            "pict_type": "P"
        },
        {
            "pkt_pts_time": "4.033333",
            "best_effort_timestamp_time": "4.033333",
            "pict_type": "B"
        },
        {
            "pkt_pts_time": "4.066667",
            "best_effort_timestamp_time": "4.066667",
            "pict_type": "B"
        },
        {
            "pkt_pts_time": "4.100000",
            "best_effort_timestamp_time": "4.100000",
            "pict_type": "B"
        },
        {
            "pkt_pts_time": "4.133333",
            "best_effort_timestamp_time": "4.133333",
            "pict_type": "P"
        },
        {
            "pkt_pts_time": "4.166667",
            "best_effort_timestamp_time": "4.166667",
            "pict_type": "B"
        },
        {
            "pkt_pts_time": "4.200000",
            "best_effort_timestamp_time": "4.200000",
            "pict_type": "B"
        },
        {
            "pkt_pts_time": "4.233333",
            "best_effort_timestamp_time": "4.233333",
            "pict_type": "B"
        },
        {
            "pkt_pts_time": "4.266667",
            "best_effort_timestamp_time": "4.266667",
            "pict_type": "P"
        },
        {
            "pkt_pts_time": "4.300000",
            "best_effort_timestamp_time": "4.300000",
            "pict_type": "B"
        },
        {
            "pkt_pts_time": "4.333333",
            "best_effort_timestamp_time": "4.333333",
            "pict_type": "B"
        },
        {
            "pkt_pts_time": "4.366667",
            "best_effort_timestamp_time": "4.366667",
            "pict_type": "B"
        },
        {
            "pkt_pts_time": "4.400000",
            "best_effort_timestamp_time": "4.400000",
            "pict_type": "P"
        },
        {
            "pkt_pts_time": "4.433333",
            "best_effort_timestamp_time": "4.433333",
            "pict_type": "B"
        },
        {
            "pkt_pts_time": "4.466667",
            "best_effort_timestamp_time": "4.466667",
            "pict_type": "B"
        },
        {
            "pkt_pts_time": "4.500000",
            "best_effort_timestamp_time": "4.500000",
            "pict_type": "B"
        },
        {
            "pkt_pts_time": "4.533333",
            "best_effort_timestamp_time": "4.533333",
            "pict_type": "P"
        },
        {
            "pkt_pts_time": "4.566667",
            "best_effort_timestamp_time": "4.566667",
            "pict_type": "B"
        },
        {
            "pkt_pts_time": "4.600000",
            "best_effort_timestamp_time": "4.600000",
            "pict_type": "B"
        },
        {
            "pkt_pts_time": "4.633333",
            "best_effort_timestamp_time": "4.633333",
            "pict_type": "B"
        },
        {
            "pkt_pts_time": "4.666667",
            "best_effort_timestamp_time": "4.666667",
            "pict_type": "P"
        },
        {
            "pkt_pts_time": "4.700000",
            "best_effort_timestamp_time": "4.700000",
            "pict_type": "B"
        },
        {
            "pkt_pts_time": "4.733333",
            "best_effort_timestamp_time": "4.733333",
            "pict_type": "B"
        },
        {
            "pkt_pts_time": "4.766667",
            "best_effort_timestamp_time": "4.766667",
            "pict_type": "B"
        },
        {
            "pkt_pts_time": "4.800000",
            "best_effort_timestamp_time": "4.800000",
            "pict_type": "P"
        },
        {
            "pkt_pts_time": "4.833333",
            "best_effort_timestamp_time": "4.833333",
            "pict_type": "B"
        },
        {
            "pkt_pts_time": "4.866667",
            "best_effort_timestamp_time": "4.866667",
            "pict_type": "B"
        },
        {
            "pkt_pts_time": "4.900000",
            "best_effort_timestamp_time": "4.900000",
            "pict_type": "B"
        },
        {
            "pkt_pts_time": "4.933333",
            "best_effort_timestamp_time": "4.933333",
            "pict_type": "P"
        },
        {
            "pkt_pts_time": "4.966667",
            "best_effort_timestamp_time": "4.966667",
            "pict_type": "B"
        },
        {
            "pkt_pts_time": "5.000000",
            "best_effort_timestamp_time": "5.000000",
            "pict_type": "B"
        },
        {
            "pkt_pts_time": "5.033333",
            "best_effort_timestamp_time": "5.033333",
            "pict_type": "B"
        },
        {
            "pkt_pts_time": "5.066667",
            "best_effort_timestamp_time": "5.066667",
            "pict_type": "P"
        },
        {
            "pkt_pts_time": "5.100000",
            "best_effort_timestamp_time": "5.100000",
            "pict_type": "B"
        },
        {
            "pkt_pts_time": "5.133333",
            "best_effort_timestamp_time": "5.133333",
            "pict_type": "B"
        },
        {
            "pkt_pts_time": "5.166667",
            "best_effort_timestamp_time": "5.166667",
            "pict_type": "B"
        },
        {
            "pkt_pts_time": "5.200000",
            "best_effort_timestamp_time": "5.200000",
            "pict_type": "P"
        },
        {
            "pkt_pts_time": "5.233333",
            "best_effort_timestamp_time": "5.233333",
            "pict_type": "B"
        },
        {
            "pkt_pts_time": "5.266667",
            "best_effort_timestamp_time": "5.266667",
            "pict_type": "B"
        },
        {
            "pkt_pts_time": "5.300000",
            "best_effort_timestamp_time": "5.300000",
            "pict_type": "B"
        },
        {
            "pkt_pts_time": "5.333333",
            "best_effort_timestamp_time": "5.333333",
            "pict_type": "P"
        },
        {
            "pkt_pts_time": "5.366667",
            "best_effort_timestamp_time": "5.366667",
            "pict_type": "B"
        },
        {
            "pkt_pts_time": "5.400000",
            "best_effort_timestamp_time": "5.400000",
            "pict_type": "B"
        },
        {
            "pkt_pts_time": "5.433333",
            "best_effort_timestamp_time": "5.433333",
            "pict_type": "B"
        },
        {
            "pkt_pts_time": "5.466667",
            "best_effort_timestamp_time": "5.466667",
            "pict_type": "P"
        },
        {
            "pkt_pts_time": "5.500000",
            "best_effort_timestamp_time": "5.500000",
            "pict_type": "B"
        },
        {
            "pkt_pts_time": "5.533333",
            "best_effort_timestamp_time": "5.533333",
            "pict_type": "B"
        },
        {
            "pkt_pts_time": "5.566667",
            "best_effort_timestamp_time": "5.566667",
            "pict_type": "B"
        },
        {
            "pkt_pts_time": "5.600000",
            "best_effort_timestamp_time": "5.600000",
            "pict_type": "P"
        },
        {
            "pkt_pts_time": "5.633333",
            "best_effort_timestamp_time": "5.633333",
            "pict_type": "B"
        },
        {
            "pkt_pts_time": "5.666667",
            "best_effort_timestamp_time": "5.666667",
            "pict_type": "B"
        },
        {
            "pkt_pts_time": "5.700000",
            "best_effort_timestamp_time": "5.700000",
            "pict_type": "B"
        },
        {
            "pkt_pts_time": "5.733333",
            "best_effort_timestamp_time": "5.733333",
            "pict_type": "P"
        },
        {
            "pkt_pts_time": "5.766667",
            "best_effort_timestamp_time": "5.766667",
            "pict_type": "B"
        },
        {
            "pkt_pts_time": "5.800000",
            "best_effort_timestamp_time": "5.800000",
            "pict_type": "B"
        },
        {
            "pkt_pts_time": "5.833333",
            "best_effort_timestamp_time": "5.833333",
            "pict_type": "B"
        },
        {
            "pkt_pts_time": "5.866667",
            "best_effort_timestamp_time": "5.866667",
            "pict_type": "P"
        },
        {
            "pkt_pts_time": "5.900000",
            "best_effort_timestamp_time": "5.900000",
            "pict_type": "B"
        },
        {
            "pkt_pts_time": "5.933333",
            "best_effort_timestamp_time": "5.933333",
            "pict_type": "B"
        },
        {
            "pkt_pts_time": "5.966667",
            "best_effort_timestamp_time": "5.966667",
            "pict_type": "B"
        },
        {
            "pkt_pts_time": "6.000000",
            "best_effort_timestamp_time": "6.000000",
            "pict_type": "P"
        },
        {
            "pkt_pts_time": "6.033333",
            "best_effort_timestamp_time": "6.033333",
            "pict_type": "B"
        },
        {
            "pkt_pts_time": "6.066667",
            "best_effort_timestamp_time": "6.066667",
            "pict_type": "B"
        },
        {
            "pkt_pts_time": "6.100000",
            "best_effort_timestamp_time": "6.100000",
            "pict_type": "B"
        },
        {
            "pkt_pts_time": "6.133333",
            "best_effort_timestamp_time": "6.133333",
            "pict_type": "P"
        },
        {
            "pkt_pts_time": "6.166667",
            "best_effort_timestamp_time": "6.166667",
            "pict_type": "B"
        },
        {
            "pkt_pts_time": "6.200000",
            "best_effort_timestamp_time": "6.200000",
            "pict_type": "B"
        },
        {
            "pkt_pts_time": "6.233333",
            "best_effort_timestamp_time": "6.233333",
            "pict_type": "B"
        },
        {
            "pkt_pts_time": "6.266667",
            "best_effort_timestamp_time": "6.266667",
            "pict_type": "P"
        },
        {
            "pkt_pts_time": "6.300000",
            "best_effort_timestamp_time": "6.300000",
            "pict_type": "B"
        },
        {
            "pkt_pts_time": "6.333333",
            "best_effort_timestamp_time": "6.333333",
            "pict_type": "B"
        },
        {
            "pkt_pts_time": "6.366667",
            "best_effort_timestamp_time": "6.366667",
            "pict_type": "B"
        },
        {
            "pkt_pts_time": "6.400000",
            "best_effort_timestamp_time": "6.400000",
            "pict_type": "P"
        },
        {
            "pkt_pts_time": "6.433333",
            "best_effort_timestamp_time": "6.433333",
            "pict_type": "B"
        },
        {
            "pkt_pts_time": "6.466667",
            "best_effort_timestamp_time": "6.466667",
            "pict_type": "B"
        },
        {
            "pkt_pts_time": "6.500000",
            "best_effort_timestamp_time": "6.500000",
            "pict_type": "B"
        },
        {
            "pkt_pts_time": "6.533333",
            "best_effort_timestamp_time": "6.533333",
            "pict_type": "P"
        },
        {
            "pkt_pts_time": "6.566667",
            "best_effort_timestamp_time": "6.566667",
            "pict_type": "B"
        },
        {
            "pkt_pts_time": "6.600000",
            "best_effort_timestamp_time": "6.600000",
            "pict_type": "B"
        },
        {
            "pkt_pts_time": "6.633333",
            "best_effort_timestamp_time": "6.633333",
            "pict_type": "B"
        },
        {
            "pkt_pts_time": "6.666667",
            "best_effort_timestamp_time": "6.666667",
            "pict_type": "P"
        },
        {
            "pkt_pts_time": "6.700000",
            "best_effort_timestamp_time": "6.700000",
            "pict_type": "B"
        },
        {
            "pkt_pts_time": "6.733333",
            "best_effort_timestamp_time": "6.733333",
            "pict_type": "B"
        },
        {
            "pkt_pts_time": "6.766667",
            "best_effort_timestamp_time": "6.766667",
            "pict_type": "B"
        },
        {
            "pkt_pts_time": "6.800000",
            "best_effort_timestamp_time": "6.800000",
            "pict_type": "P"
        },
        {
            "pkt_pts_time": "6.833333",
            "best_effort_timestamp_time": "6.833333",
            "pict_type": "B"
        },
        {
            "pkt_pts_time": "6.866667",
            "best_effort_timestamp_time": "6.866667",
            "pict_type": "B"
        },
        {
            "pkt_pts_time": "6.900000",
            "best_effort_timestamp_time": "6.900000",
            "pict_type": "B"
        },
        {
            "pkt_pts_time": "6.933333",
            "best_effort_timestamp_time": "6.933333",
            "pict_type": "P"
        },
        {
            "pkt_pts_time": "6.966667",
            "best_effort_timestamp_time": "6.966667",
            "pict_type": "B"
        },
        {
            "pkt_pts_time": "7.000000",
            "best_effort_timestamp_time": "7.000000",
            "pict_type": "B"
        },
        {
            "pkt_pts_time": "7.033333",
            "best_effort_timestamp_time": "7.033333",
            "pict_type": "B"
        },
        {
            "pkt_pts_time": "7.066667",
            "best_effort_timestamp_time": "7.066667",
            "pict_type": "P"
        },
        {
            "pkt_pts_time": "7.100000",
            "best_effort_timestamp_time": "7.100000",
            "pict_type": "B"
        },
        {
            "pkt_pts_time": "7.133333",
            "best_effort_timestamp_time": "7.133333",
            "pict_type": "B"
        },
        {
            "pkt_pts_time": "7.166667",
            "best_effort_timestamp_time": "7.166667",
            "pict_type": "B"
        },
        {
            "pkt_pts_time": "7.200000",
            "best_effort_timestamp_time": "7.200000",
            "pict_type": "P"
        },
        {
            "pkt_pts_time": "7.233333",
            "best_effort_timestamp_time": "7.233333",
            "pict_type": "B"
        },
        {
            "pkt_pts_time": "7.266667",
            "best_effort_timestamp_time": "7.266667",
            "pict_type": "B"
        },
        {
            "pkt_pts_time": "7.300000",
            "best_effort_timestamp_time": "7.300000",
            "pict_type": "B"
        },
        {
            "pkt_pts_time": "7.333333",
            "best_effort_timestamp_time": "7.333333",
            "pict_type": "P"
        },
        {
            "pkt_pts_time": "7.366667",
            "best_effort_timestamp_time": "7.366667",
            "pict_type": "B"
        },
        {
            "pkt_pts_time": "7.400000",
            "best_effort_timestamp_time": "7.400000",
            "pict_type": "B"
        },
        {
            "pkt_pts_time": "7.433333",
            "best_effort_timestamp_time": "7.433333",
            "pict_type": "B"
        },
        {
            "pkt_pts_time": "7.466667",
            "best_effort_timestamp_time": "7.466667",
            "pict_type": "P"
        },
        {
            "pkt_pts_time": "7.500000",
            "best_effort_timestamp_time": "7.500000",
            "pict_type": "B"
        },
        {
            "pkt_pts_time": "7.533333",
            "best_effort_timestamp_time": "7.533333",
            "pict_type": "B"
        },
        {
            "pkt_pts_time": "7.566667",
            "best_effort_timestamp_time": "7.566667",
            "pict_type": "B"
        },
        {
            "pkt_pts_time": "7.600000",
            "best_effort_timestamp_time": "7.600000",
            "pict_type": "P"
        },
        {
            "pkt_pts_time": "7.633333",
            "best_effort_timestamp_time": "7.633333",
            "pict_type": "B"
        },
        {
            "pkt_pts_time": "7.666667",
            "best_effort_timestamp_time": "7.666667",
            "pict_type": "B"
        },
        {
            "pkt_pts_time": "7.700000",
            "best_effort_timestamp_time": "7.700000",
            "pict_type": "B"
        },
        {
            "pkt_pts_time": "7.733333",
            "best_effort_timestamp_time": "7.733333",
            "pict_type": "P"
        },
        {
            "pkt_pts_time": "7.766667",
            "best_effort_timestamp_time": "7.766667",
            "pict_type": "B"
        },
        {
            "pkt_pts_time": "7.800000",
            "best_effort_timestamp_time": "7.800000",
            "pict_type": "B"
        },
        {
            "pkt_pts_time": "7.833333",
            "best_effort_timestamp_time": "7.833333",
            "pict_type": "B"
        },
        {
            "pkt_pts_time": "7.866667",
            "best_effort_timestamp_time": "7.866667",
            "pict_type": "P"
        },
        {
            "pkt_pts_time": "7.900000",
            "best_effort_timestamp_time": "7.900000",
            "pict_type": "B"
        },
        {
            "pkt_pts_time": "7.933333",
            "best_effort_timestamp_time": "7.933333",
            "pict_type": "B"
        },
        {
            "pkt_pts_time": "7.966667",
            "best_effort_timestamp_time": "7.966667",
            "pict_type": "B"
        },
        {
            "pkt_pts_time": "8.000000",
            "best_effort_timestamp_time": "8.000000",
            "pict_type": "P"
        },
        {
            "pkt_pts_time": "8.033333",
            "best_effort_timestamp_time": "8.033333",
            "pict_type": "B"
        },
        {
            "pkt_pts_time": "8.066667",
            "best_effort_timestamp_time": "8.066667",
            "pict_type": "B"
        },
        {
            "pkt_pts_time": "8.100000",
            "best_effort_timestamp_time": "8.100000",
            "pict_type": "B"
        },
        {
            "pkt_pts_time": "8.133333",
            "best_effort_timestamp_time": "8.133333",
            "pict_type": "P"
        },
        {
            "pkt_pts_time": "8.166667",
            "best_effort_timestamp_time": "8.166667",
            "pict_type": "B"
        },
        {
            "pkt_pts_time": "8.200000",
            "best_effort_timestamp_time": "8.200000",
            "pict_type": "B"
        },
        {
            "pkt_pts_time": "8.233333",
            "best_effort_timestamp_time": "8.233333",
            "pict_type": "B"
        },
        {
            "pkt_pts_time": "8.266667",
            "best_effort_timestamp_time": "8.266667",
            "pict_type": "P"
        },
        {
            "pkt_pts_time": "8.300000",
            "best_effort_timestamp_time": "8.300000",
            "pict_type": "P"
        },
        {
            "pkt_pts_time": "8.333333",
            "best_effort_timestamp_time": "8.333333",
            "pict_type": "I"
        },
        {
            "pkt_pts_time": "8.366667",
            "best_effort_timestamp_time": "8.366667",
            "pict_type": "B"
        },
        {
            "pkt_pts_time": "8.400000",
            "best_effort_timestamp_time": "8.400000",
            "pict_type": "B"
        },
        {
            "pkt_pts_time": "8.433333",
            "best_effort_timestamp_time": "8.433333",
            "pict_type": "B"
        },
        {
            "pkt_pts_time": "8.466667",
            "best_effort_timestamp_time": "8.466667",
            "pict_type": "P"
        },
        {
            "pkt_pts_time": "8.500000",
            "best_effort_timestamp_time": "8.500000",
            "pict_type": "B"
        },
        {
            "pkt_pts_time": "8.533333",
            "best_effort_timestamp_time": "8.533333",
            "pict_type": "B"
        },
        {
            "pkt_pts_time": "8.566667",
            "best_effort_timestamp_time": "8.566667",
            "pict_type": "B"
        },
        {
            "pkt_pts_time": "8.600000",
            "best_effort_timestamp_time": "8.600000",
            "pict_type": "P"
        },
        {
            "pkt_pts_time": "8.633333",
            "best_effort_timestamp_time": "8.633333",
            "pict_type": "B"
        },
        {
            "pkt_pts_time": "8.666667",
            "best_effort_timestamp_time": "8.666667",
            "pict_type": "B"
        },
        {
            "pkt_pts_time": "8.700000",
            "best_effort_timestamp_time": "8.700000",
            "pict_type": "B"
        },
        {
            "pkt_pts_time": "8.733333",
            "best_effort_timestamp_time": "8.733333",
            "pict_type": "P"
        },
        {
            "pkt_pts_time": "8.766667",
            "best_effort_timestamp_time": "8.766667",
            "pict_type": "B"
        },
        {
            "pkt_pts_time": "8.800000",
            "best_effort_timestamp_time": "8.800000",
            "pict_type": "B"
        },
        {
            "pkt_pts_time": "8.833333",
            "best_effort_timestamp_time": "8.833333",
            "pict_type": "B"
        },
        {
            "pkt_pts_time": "8.866667",
            "best_effort_timestamp_time": "8.866667",
            "pict_type": "P"
        },
        {
            "pkt_pts_time": "8.900000",
            "best_effort_timestamp_time": "8.900000",
            "pict_type": "B"
        },
        {
            "pkt_pts_time": "8.933333",
            "best_effort_timestamp_time": "8.933333",
            "pict_type": "B"
        },
        {
            "pkt_pts_time": "8.966667",
            "best_effort_timestamp_time": "8.966667",
            "pict_type": "B"
        },
        {
            "pkt_pts_time": "9.000000",
            "best_effort_timestamp_time": "9.000000",
            "pict_type": "P"
        },
        {
            "pkt_pts_time": "9.033333",
            "best_effort_timestamp_time": "9.033333",
            "pict_type": "B"
        },
        {
            "pkt_pts_time": "9.066667",
            "best_effort_timestamp_time": "9.066667",
            "pict_type": "B"
        },
        {
            "pkt_pts_time": "9.100000",
            "best_effort_timestamp_time": "9.100000",
            "pict_type": "B"
        },
        {
            "pkt_pts_time": "9.133333",
            "best_effort_timestamp_time": "9.133333",
            "pict_type": "P"
        },
        {
            "pkt_pts_time": "9.166667",
            "best_effort_timestamp_time": "9.166667",
            "pict_type": "B"
        },
        {
            "pkt_pts_time": "9.200000",
            "best_effort_timestamp_time": "9.200000",
            "pict_type": "B"
        },
        {
            "pkt_pts_time": "9.233333",
            "best_effort_timestamp_time": "9.233333",
            "pict_type": "B"
        },
        {
            "pkt_pts_time": "9.266667",
            "best_effort_timestamp_time": "9.266667",
            "pict_type": "P"
        },
        {
            "pkt_pts_time": "9.300000",
            "best_effort_timestamp_time": "9.300000",
            "pict_type": "B"
        },
        {
            "pkt_pts_time": "9.333333",
            "best_effort_timestamp_time": "9.333333",
            "pict_type": "B"
        },
        {
            "pkt_pts_time": "9.366667",
            "best_effort_timestamp_time": "9.366667",
            "pict_type": "B"
        },
        {
            "pkt_pts_time": "9.400000",
            "best_effort_timestamp_time": "9.400000",
            "pict_type": "P"
        },
        {
            "pkt_pts_time": "9.433333",
            "best_effort_timestamp_time": "9.433333",
            "pict_type": "B"
        },
        {
            "pkt_pts_time": "9.466667",
            "best_effort_timestamp_time": "9.466667",
            "pict_type": "B"
        },
        {
            "pkt_pts_time": "9.500000",
            "best_effort_timestamp_time": "9.500000",
            "pict_type": "B"
        },
        {
            "pkt_pts_time": "9.533333",
            "best_effort_timestamp_time": "9.533333",
            "pict_type": "P"
        },
        {
            "pkt_pts_time": "9.566667",
            "best_effort_timestamp_time": "9.566667",
            "pict_type": "B"
        },
        {
            "pkt_pts_time": "9.600000",
            "best_effort_timestamp_time": "9.600000",
            "pict_type": "B"
        },
        {
            "pkt_pts_time": "9.633333",
            "best_effort_timestamp_time": "9.633333",
            "pict_type": "B"
        },
        {
            "pkt_pts_time": "9.666667",
            "best_effort_timestamp_time": "9.666667",
            "pict_type": "P"
        },
        {
            "pkt_pts_time": "9.700000",
            "best_effort_timestamp_time": "9.700000",
            "pict_type": "B"
        },
        {
            "pkt_pts_time": "9.733333",
            "best_effort_timestamp_time": "9.733333",
            "pict_type": "B"
        },
        {
            "pkt_pts_time": "9.766667",
            "best_effort_timestamp_time": "9.766667",
            "pict_type": "B"
        },
        {
            "pkt_pts_time": "9.800000",
            "best_effort_timestamp_time": "9.800000",
            "pict_type": "P"
        },
        {
            "pkt_pts_time": "9.833333",
            "best_effort_timestamp_time": "9.833333",
            "pict_type": "B"
        },
        {
            "pkt_pts_time": "9.866667",
            "best_effort_timestamp_time": "9.866667",
            "pict_type": "B"
        },
        {
            "pkt_pts_time": "9.900000",
            "best_effort_timestamp_time": "9.900000",
            "pict_type": "B"
        },
        {
            "pkt_pts_time": "9.933333",
            "best_effort_timestamp_time": "9.933333",
            "pict_type": "P"
        },
        {
            "pkt_pts_time": "9.966667",
            "best_effort_timestamp_time": "9.966667",
            "pict_type": "P"
        }
    ]
}
